<?xml version="1.0" encoding="utf-8"?>
<!-- Generator: Adobe Illustrator 21.1.0, SVG Export Plug-In . SVG Version: 6.00 Build 0)  -->
<svg version="1.1" id="Layer_1" xmlns="http://www.w3.org/2000/svg" xmlns:xlink="http://www.w3.org/1999/xlink" x="0px" y="0px"
	 viewBox="0 0 647 640" style="enable-background:new 0 0 647 640;" xml:space="preserve">
<style type="text/css">
	.st0{fill:#4CAF50;}
	.st1{opacity:0.75;}
	.st2{opacity:0.5;fill:#FDFFFF;enable-background:new    ;}
</style>
<rect class="st0" width="647" height="640"/>
<g class="st1">
	<g>
		<path d="M0,0v640h647V0H0z M204.7,612.7H27.5V489h177.2V612.7z M204.7,459H27.5V335.2h177.2V459z M204.7,305.3H27.5V181.5h177.2
			V305.3z M411.7,612.7H234.5V489h177.2V612.7z M412.1,459H234.9V335.2h177.2L412.1,459L412.1,459z M412.1,305.3H234.9V181.5h177.2
			L412.1,305.3L412.1,305.3z M619.5,612.7H442.3V489h177.2V612.7z M619.5,459H442.3V335.2h177.2V459z M619.5,305.3H442.3V181.5
			h177.2V305.3z M619.5,151h-592V27.2h592V151z"/>
	</g>
</g>
<rect x="27.5" y="181.5" class="st2" width="177.2" height="123.8"/>
<rect x="27.5" y="335.2" class="st2" width="177.2" height="123.8"/>
<rect x="27.5" y="489" class="st2" width="177.2" height="123.8"/>
<rect x="234.5" y="489" class="st2" width="177.2" height="123.8"/>
<rect x="234.9" y="181.5" class="st2" width="177.2" height="123.8"/>
<rect x="234.9" y="335.2" class="st2" width="177.2" height="123.8"/>
<rect x="442.3" y="181.5" class="st2" width="177.2" height="123.8"/>
<rect x="442.3" y="335.2" class="st2" width="177.2" height="123.8"/>
<rect x="442.3" y="489" class="st2" width="177.2" height="123.8"/>
</svg>
