<?xml version="1.0" encoding="utf-8"?>
<!-- Generator: Adobe Illustrator 22.0.1, SVG Export Plug-In . SVG Version: 6.00 Build 0)  -->
<svg version="1.1" id="Layer_1" xmlns="http://www.w3.org/2000/svg" xmlns:xlink="http://www.w3.org/1999/xlink" x="0px" y="0px"
	 viewBox="0 0 1294 526.8" style="enable-background:new 0 0 1294 526.8;" xml:space="preserve">
<style type="text/css">
	.st0{fill:#8CA0A8;}
</style>
<path class="st0" d="M1231.4,115v31.7h-420c-26.9,0-52.8,19.5-57.5,43.3l-5.7,28.9l-42.5,213.2l-10.4,52.4l-8.1,40.8
	c-23-5.7-40.2-26.7-40.2-51.4V53c0-29.1,23.8-53,53-53h188.2l62,62h228.3C1207.6,62.1,1231.4,85.9,1231.4,115z"/>
<path class="st0" d="M700,526.8h477.3c7.5,0,14.8-1.5,21.7-4.2c17.9-6.9,32.4-21.9,35.8-39.1l55.7-280.1H816.3"/>
<polygon class="st0" points="331.2,458.2 0,458.2 331.2,127 "/>
</svg>
