<?xml version="1.0" encoding="utf-8"?>
<!-- Generator: Adobe Illustrator 22.0.1, SVG Export Plug-In . SVG Version: 6.00 Build 0)  -->
<svg version="1.1" id="Layer_1" xmlns="http://www.w3.org/2000/svg" xmlns:xlink="http://www.w3.org/1999/xlink" x="0px" y="0px"
	 viewBox="0 0 1294 640" style="enable-background:new 0 0 1294 640;" xml:space="preserve">
<style type="text/css">
	.st0{fill:#67767A;}
	.st1{fill:#8CA0A8;}
</style>
<path class="st0" d="M1231.4,228.2v31.7h-420c-26.9,0-52.8,19.5-57.5,43.3l-5.7,28.9l-42.5,213.2l-10.4,52.4l-8.1,40.8
	c-23-5.7-40.2-26.7-40.2-51.4V166.2c0-29.1,23.8-53,53-53h188.2l62,62h228.3C1207.6,175.3,1231.4,199.1,1231.4,228.2z"/>
<path class="st1" d="M1293.2,303.2l-58.4,293.5c-3.4,17.2-17.9,32.2-35.8,39.1c-6.9,2.7-14.2,4.2-21.7,4.2H700
	c-4.4,0-8.7-0.5-12.8-1.6l8.1-40.8l10.4-52.4l42.4-213.1l5.7-28.9c4.7-23.8,30.6-43.3,57.5-43.3H1253
	C1279.9,259.9,1298,279.4,1293.2,303.2z"/>
<polygon class="st1" points="331.2,571.4 0,571.4 331.2,240.2 "/>
</svg>
