<?xml version="1.0" encoding="utf-8"?>
<!-- Generator: Adobe Illustrator 22.0.1, SVG Export Plug-In . SVG Version: 6.00 Build 0)  -->
<svg version="1.1" id="Layer_1" xmlns="http://www.w3.org/2000/svg" xmlns:xlink="http://www.w3.org/1999/xlink" x="0px" y="0px"
	 viewBox="0 0 647 526.8" style="enable-background:new 0 0 647 526.8;" xml:space="preserve">
<style type="text/css">
	.st0{fill:#8CA0A8;}
	.st1{fill:#A9BEC4;}
</style>
<g>
	<path class="st0" d="M584.4,115v31.7h-420c-26.9,0-52.8,19.5-57.5,43.3l-5.7,28.9L58.7,432.1l-10.4,52.4l-8.1,40.8
		C17.2,519.6,0,498.6,0,473.9V53C0,23.9,23.8,0,53,0h188.2l62,62h228.3C560.6,62.1,584.4,85.9,584.4,115z"/>
	<path class="st1" d="M646.2,190l-58.4,293.5c-3.4,17.2-17.9,32.2-35.8,39.1c-6.9,2.7-14.2,4.2-21.7,4.2H53c-4.4,0-8.7-0.5-12.8-1.6
		l8.1-40.8L58.7,432l42.4-213.1l5.7-28.9c4.7-23.8,30.6-43.3,57.5-43.3H606C632.9,146.7,651,166.2,646.2,190z"/>
</g>
</svg>
